<svg xmlns="http://www.w3.org/2000/svg" viewBox="0 0 518.63 156.57"><defs><style>.cls-1{fill:#231f20;}.cls-2{fill:none;stroke-miterlimit:10;stroke-width:1.13px;}.cls-2,.cls-3,.cls-4{stroke:#010101;}.cls-3{fill:#fff;}.cls-3,.cls-4{stroke-miterlimit:10;stroke-width:1.13px;}.cls-4{fill:#010101;}.cls-5{fill:#c42032;}</style></defs><g id="Layer_1" data-name="Layer 1"><path class="cls-1" d="M278.92,127.12" transform="translate(-5.84 -4.29)"/><path class="cls-1" d="M524.47,83.35A29.68,29.68,0,0,1,524.2,87" transform="translate(-5.84 -4.29)"/><circle class="cls-2" cx="80.03" cy="78.56" r="63.48"/><polygon class="cls-3" points="56.65 13.46 90.22 56.73 58.16 67.85 56.65 13.46"/><polyline class="cls-3" points="69.39 98.82 15 100.33 58.3 66.77"/><polyline class="cls-3" points="91.8 56.69 146.19 55.18 102.91 88.72"/><polyline class="cls-3" points="101.76 87.07 103.27 141.46 69.71 98.16"/><g id="Layer_1-2" data-name="Layer 1"><polygon class="cls-3" points="114.68 4.29 102.42 69.84 80.21 78.17 114.68 4.29"/><polygon class="cls-4" points="113.82 3.88 71.49 55.4 79.38 77.77 113.82 3.88"/><polygon class="cls-3" points="4.29 42.72 69.84 54.98 78.2 77.19 4.29 42.72"/><polygon class="cls-4" points="3.9 43.57 56.04 86.19 77.79 78.02 3.9 43.57"/><polygon class="cls-3" points="44.12 152.28 56.36 86.73 78.56 78.4 44.12 152.28"/><polygon class="cls-4" points="44.95 152.67 87.28 101.14 79.42 78.78 44.95 152.67"/><polygon class="cls-3" points="153.53 113.86 87.98 101.59 79.65 79.41 153.53 113.86"/><polygon class="cls-4" points="153.94 113 102.42 70.67 80.03 78.56 153.94 113"/></g></g><g id="Text_SignPainter_copy" data-name="Text SignPainter copy"><path class="cls-5" d="M189.47,94.32c.64-4.14,3.31-14.54,6.44-24.66-7.18,11-15.37,24.29-20.34,35.7-.55,1.29-1.93,1.56-3.12.37a6.33,6.33,0,0,1-1.66-4.6,15.75,15.75,0,0,1,1.29-5.8c3.77-9.2,18.21-33.3,27.87-46.27,1.11-1.48,2.58-2,4.33-.65a9.47,9.47,0,0,1,3.77,7.45,24.18,24.18,0,0,1-1.29,6.63c-2.85,8.28-4.69,13.89-8,26.22,9.66-14.63,19.5-23.65,29.71-39.84,1.2-1.93,2.39-2,4.14-.37a9.1,9.1,0,0,1,2.67,6.35,18.11,18.11,0,0,1-2.21,7.55c-6.35,11.86-15.45,30.08-20,43-.65,1.84-1.47,1.84-3,.55a6.68,6.68,0,0,1-2.11-5.24,19.9,19.9,0,0,1,.73-5.25v.09c1.11-4.32,5.62-14,10.12-23.18-8.09,10.4-17,22.82-22.44,32.66-1,1.84-1.84,1.84-3.22.83a9.74,9.74,0,0,1-4.05-8.28A20,20,0,0,1,189.47,94.32Z" transform="translate(-5.84 -4.29)"/><path class="cls-5" d="M262.7,95.61c-3.68,5.61-9.75,9-17.3,12.14-5.06,12.14-11.31,26.86-19.32,29.9-2.11.83-4,.83-6.25-2.12a13.65,13.65,0,0,1-2.76-7.63,14.42,14.42,0,0,1,.83-4.33c2.85-7.91,10.3-13.52,19.22-17.11l1.38-3.22a12.25,12.25,0,0,1-7.54,2.58c-4.6,0-6.62-3.5-6.62-7.36A19.16,19.16,0,0,1,225.53,92a102.18,102.18,0,0,1,12.33-22.91c1.19-1.56,2.57-1.65,3.59-.18a8.29,8.29,0,0,1,1.74,4.41c0,2.3-1.1,5-3.22,8.38a78.08,78.08,0,0,0-6.8,13.06c-1.29,3.31-2.12,7,.27,7s6.53-5.43,11-13.06c6.17-10.4,8.65-16,10.86-19.32,1.29-1.66,2.48-1.84,3.49-.83a5.9,5.9,0,0,1,1.75,4.69,13.28,13.28,0,0,1-1.65,6.17c-2.67,5.15-7.46,14.07-11.23,22.81A46.76,46.76,0,0,0,261,90c1.2-1.65,2.58-1.84,2.95-.64A7.77,7.77,0,0,1,262.7,95.61ZM225.26,123c-2.3,4.32-2.95,8.1-2,8.92.65.56,2.58-2.11,5.15-6.62,1.94-3.4,4.14-7.91,6.35-12.88A30.63,30.63,0,0,0,225.26,123Z" transform="translate(-5.84 -4.29)"/><path class="cls-1" d="M273.5,83.81a30.2,30.2,0,0,1,9.15-21.31,31,31,0,0,1,22.1-9.15c10.59,0,16.64,4.25,19.95,8.93l-6.62,5.62c-3-3.53-6.92-6.41-14-6.41a20.71,20.71,0,0,0-14.77,6.19,22.78,22.78,0,0,0-6.55,15.84c0,8.86,6.19,13.83,14.4,13.83a21.68,21.68,0,0,0,10.66-2.59L311,84.17H298.06l2.09-7.7H321.6l-6.84,24.12a34.21,34.21,0,0,1-18.14,4.9C284.81,105.49,273.5,98.21,273.5,83.81Z" transform="translate(-5.84 -4.29)"/><path class="cls-1" d="M324.33,94a28.84,28.84,0,0,1,1.16-6.7L331,66.6h8.71l-5.68,21.1a17.84,17.84,0,0,0-.51,3.82c0,3.81,2.45,6,6.55,6,4.9,0,8.93-3.89,10.45-9.5l5.76-21.39H365l-10.15,38h-8.72l1.3-4.89c-3,3-6.7,5.68-11.52,5.68C328.87,105.41,324.33,101,324.33,94Z" transform="translate(-5.84 -4.29)"/><path class="cls-1" d="M372.86,66.6h8.72l-10.23,38h-8.71Zm3.46-14.11h9.43l-2.3,8.28h-9.36Z" transform="translate(-5.84 -4.29)"/><path class="cls-1" d="M408.94,99.58c-3.39,3.46-7.2,5.83-12.17,5.83-8.43,0-14.84-6.19-14.84-16.27A24,24,0,0,1,388.85,72a20.34,20.34,0,0,1,14.25-6.19c6.7,0,10.52,3.31,12.82,7.56l5.69-21.31h8.71l-14,52.56h-8.71ZM409,94a15.86,15.86,0,0,0,4.75-11.09,9.24,9.24,0,0,0-9.65-9.58A12.07,12.07,0,0,0,395.62,77,16.3,16.3,0,0,0,391,88.56c0,5.77,3.6,9.37,9.07,9.37A12.61,12.61,0,0,0,409,94Z" transform="translate(-5.84 -4.29)"/><path class="cls-1" d="M434.71,88.64c0,5.76,3.38,9.72,9.87,9.72,3.67,0,6.48-1.23,9.72-3.67l4.17,5.54a22.13,22.13,0,0,1-14.76,5.26c-10.58,0-17.28-6.41-17.28-16.64a23.8,23.8,0,0,1,7-16.56,21.59,21.59,0,0,1,15.4-6.48c9.8,0,15.2,6.48,15.2,14.76a21.31,21.31,0,0,1-1.66,8.07Zm.94-5.76h19.73a9,9,0,0,0,.36-2.67c0-4-2.31-7.27-7.56-7.27a12.33,12.33,0,0,0-8.79,3.74A16,16,0,0,0,435.65,82.88Z" transform="translate(-5.84 -4.29)"/></g></svg>